<?xml version="1.0" encoding="utf-8"?>
<!-- Generator: Adobe Illustrator 19.0.0, SVG Export Plug-In . SVG Version: 6.00 Build 0)  -->
<svg version="1.1" id="Capa_1" xmlns="http://www.w3.org/2000/svg" xmlns:xlink="http://www.w3.org/1999/xlink" x="0px" y="0px"
	 viewBox="0 0 30 30" style="enable-background:new 0 0 30 30;" xml:space="preserve">
<style type="text/css">
	.st0{fill:#FFFFFF;}
</style>
<g id="XMLID_3_">
	<path id="XMLID_10_" class="st0" d="M16.4,3.6h-2.6v12.8h2.6V3.6z M22.5,6.4l-1.8,1.8c2.1,1.7,3.3,4.2,3.3,6.9c0,4.9-4,9-9,9
		c-4.9,0-9-4-9-9c0-2.7,1.2-5.2,3.3-6.9L7.6,6.4c-4.8,4.1-5.4,11.4-1.3,16.2c4.1,4.8,11.4,5.4,16.2,1.3c2.6-2.2,4.1-5.4,4.1-8.8
		C26.6,11.8,25.1,8.6,22.5,6.4"/>
</g>
</svg>
