<?xml version="1.0" encoding="utf-8"?>
<!-- Generator: Adobe Illustrator 19.0.0, SVG Export Plug-In . SVG Version: 6.00 Build 0)  -->
<svg version="1.1" id="Capa_1" xmlns="http://www.w3.org/2000/svg" xmlns:xlink="http://www.w3.org/1999/xlink" x="0px" y="0px"
	 viewBox="0 0 30 30" style="enable-background:new 0 0 30 30;" xml:space="preserve">
<style type="text/css">
	.st0{fill:#FFFFFF;}
</style>
<g id="XMLID_16_">
	<path id="XMLID_18_" class="st0" d="M20.4,21.4H8.9V13c0-3.2,2.6-5.8,5.8-5.8s5.8,2.6,5.8,5.8 M22.9,20.1v-7c0-3.9-2.7-7.2-6.4-8.1
		V4.1c0-1.1-0.9-1.9-1.9-1.9S12.7,3,12.7,4.1V5C9,5.8,6.3,9.1,6.3,13v7l-2.6,2.6v1.3h21.7v-1.3 M14.6,27.8c1.4,0,2.6-1.1,2.6-2.6
		h-5.1C12.1,26.6,13.2,27.8,14.6,27.8"/>
</g>
</svg>
