<?xml version="1.0" encoding="utf-8"?>
<!-- Generator: Adobe Illustrator 19.0.0, SVG Export Plug-In . SVG Version: 6.00 Build 0)  -->
<svg version="1.1" id="Capa_1" xmlns="http://www.w3.org/2000/svg" xmlns:xlink="http://www.w3.org/1999/xlink" x="0px" y="0px"
	 viewBox="0 0 30 30" style="enable-background:new 0 0 30 30;" xml:space="preserve">
<style type="text/css">
	.st0{fill:#FFFFFF;}
</style>
<g id="XMLID_9_">
	<path id="XMLID_11_" class="st0" d="M24.5,16.8l2.7,2.1c0.2,0.2,0.3,0.5,0.2,0.8l-2.6,4.4c-0.2,0.3-0.5,0.4-0.8,0.3l-3.2-1.3
		c-0.7,0.5-1.4,0.9-2.2,1.3l-0.5,3.4c-0.1,0.3-0.3,0.5-0.6,0.5h-5.1c-0.3,0-0.6-0.2-0.6-0.5l-0.5-3.4c-0.8-0.3-1.5-0.8-2.2-1.3
		L6,24.4c-0.3,0.1-0.6,0-0.8-0.3l-2.6-4.4c-0.2-0.3-0.1-0.6,0.2-0.8l2.7-2.1l-0.1-1.2l0.1-1.3l-2.7-2.1c-0.2-0.2-0.3-0.5-0.2-0.8
		l2.6-4.4C5.4,6.6,5.7,6.5,6,6.6l3.2,1.3c0.7-0.5,1.4-0.9,2.2-1.3l0.5-3.4c0.1-0.3,0.3-0.5,0.6-0.5h5.1c0.3,0,0.6,0.2,0.6,0.5
		l0.5,3.4c0.8,0.3,1.5,0.8,2.2,1.3L24,6.6c0.3-0.1,0.6,0,0.8,0.3l2.6,4.4c0.2,0.3,0.1,0.6-0.2,0.8l-2.7,2.1l0.1,1.3L24.5,16.8
		 M8,15.5c0,0.7,0.1,1.4,0.3,2.1l-2.6,2.2l1,1.7l3.2-1.2c0.9,1,2.2,1.8,3.6,2.1l0.6,3.4h1.9l0.6-3.4c1.4-0.3,2.7-1.1,3.7-2.1
		l3.2,1.2l1-1.7l-2.6-2.2c0.2-0.7,0.3-1.4,0.3-2.1c0-0.7-0.1-1.4-0.3-2.1l2.6-2.2l-1-1.7l-3.2,1.2c-1-1-2.2-1.8-3.7-2.1L16,5.3H14
		l-0.6,3.4C12,9,10.8,9.7,9.8,10.8L6.6,9.6l-1,1.7l2.6,2.2C8.1,14.1,8,14.8,8,15.5 M15,11.1c2.5,0,4.5,2,4.5,4.5
		c0,2.5-2,4.5-4.5,4.5s-4.5-2-4.5-4.5C10.5,13.1,12.5,11.1,15,11.1 M15,13.6c-1.1,0-1.9,0.9-1.9,1.9c0,1.1,0.9,1.9,1.9,1.9
		c1.1,0,1.9-0.9,1.9-1.9C16.9,14.5,16.1,13.6,15,13.6"/>
</g>
</svg>
