<?xml version="1.0" encoding="utf-8"?>
<!-- Generator: Adobe Illustrator 19.0.0, SVG Export Plug-In . SVG Version: 6.00 Build 0)  -->
<svg version="1.1" id="Capa_1" xmlns="http://www.w3.org/2000/svg" xmlns:xlink="http://www.w3.org/1999/xlink" x="0px" y="0px"
	 viewBox="0 0 25 25" style="enable-background:new 0 0 25 25;" xml:space="preserve">
<style type="text/css">
	.st0{fill:#010002;}
</style>
<g id="XMLID_19_">
	<path id="XMLID_21_" class="st0" d="M20.7,4.5h-0.2h-3v-2h-10v2H5H4.3H2.5v7c0,1,1,2,2,2h3.2c0.4,1.9,1.4,3.6,3.8,3.9v2.1
		c-3,0.2-3,1.3-3,2.6v0.4h8v-0.3c0-1.3,0-2.4-3-2.6v-2.1c2.5-0.3,3.5-2,3.8-3.9h3.2c1,0,2-1,2-2V4.5H20.7 M4.5,11.5v-5h3v2v3H4.5
		 M20.5,11.5h-3v-5h1h2V11.5z"/>
</g>
</svg>
